<svg xmlns="http://www.w3.org/2000/svg" viewBox="0 0 125.17 31.51"><defs><style>.cls-1{fill:#fff;stroke:#fff;stroke-miterlimit:10;}.cls-2{font-size:15.09px;fill:#31a753;font-family:MyriadPro-Regular, Myriad Pro;}.cls-3{fill:#fabb09;}.cls-4{fill:#517bbd;}.cls-5{fill:#e74335;}.cls-6{font-size:15.2px;font-family:UbuntuMonospaced-Regular, Ubuntu Monospaced;}.cls-6,.cls-7{fill:#1d1d1b;}.cls-7{font-size:3.92px;font-family:UbuntuMonospaced-Bold, Ubuntu Monospaced;font-weight:700;}</style></defs><g id="Calque_2" data-name="Calque 2"><g id="Calque_1-2" data-name="Calque 1"><rect class="cls-1" x="2.13" y="6.61" width="27.21" height="24.41" rx="3.93"/><text class="cls-2" transform="matrix(3.15, -0.1, 0.1, 0.99, 1.32, 13.49)">~</text><path class="cls-3" d="M23.11,11.05H13.56v.27a12.75,12.75,0,0,1,4.55.81,2.36,2.36,0,0,1,1.38,1.2,3.37,3.37,0,0,1,.25,1.34V25A6.5,6.5,0,0,1,19,28.69a3.41,3.41,0,0,1-1.56,1.06,7.22,7.22,0,0,1-2.4.36,5.79,5.79,0,0,1-1.72-.21,2.79,2.79,0,0,1-1.15-.73,7.76,7.76,0,0,0-.78-.75,2.12,2.12,0,0,0-.61-.35,4.55,4.55,0,0,0-1.75-.29,4.59,4.59,0,0,0-1.72.27c-.44.19-.66.41-.66.7,0,.47.57.84,1.69,1.13a18.09,18.09,0,0,0,2.44.38c1,.09,2.06.13,3.14.13A38.42,38.42,0,0,0,19.23,30a19.53,19.53,0,0,0,4.1-1,4.36,4.36,0,0,0,2.11-1.47A4.5,4.5,0,0,0,26,25.14V14.5A4.46,4.46,0,0,0,23.11,11.05Z"/><path class="cls-4" d="M19,15a5.91,5.91,0,0,0-2.26-1.41A9.15,9.15,0,0,0,14,13a7.2,7.2,0,0,0-4.59,1.07,1.3,1.3,0,0,0-.63,1,1.4,1.4,0,0,0,.17.58,1.49,1.49,0,0,0,.42.46,8.37,8.37,0,0,0,1.87,1l1.3.51,1.46.55a20.57,20.57,0,0,1,3.12,1.48,5.73,5.73,0,0,1,2.35,2.46,3.18,3.18,0,0,1,.18,1.48,3.63,3.63,0,0,1-.54,1.4,5.19,5.19,0,0,1-1.23,1.25,7.88,7.88,0,0,1-1.78.93,12.21,12.21,0,0,1-4.21.71,16.53,16.53,0,0,1-2-.11,12.36,12.36,0,0,1-2-.39,7.58,7.58,0,0,1-2.93-1.57,4,4,0,0,1-1.32-2,9.74,9.74,0,0,0,5.11,2.11,7.82,7.82,0,0,0,1.37,0,12.17,12.17,0,0,0,1.4-.12,9.49,9.49,0,0,0,1.21-.26,5.66,5.66,0,0,0,.95-.4,2.19,2.19,0,0,0,1-1.07,2.06,2.06,0,0,0,.1-.62,1.47,1.47,0,0,0-.17-.56,3.08,3.08,0,0,0-1.21-1,16,16,0,0,0-2.28-1l-1.44-.55c-.5-.2-1-.41-1.53-.64a10.94,10.94,0,0,1-3-1.89,3.76,3.76,0,0,1-.93-1.42,2.48,2.48,0,0,1-.14-.74c0-.12,0-.24,0-.36s0-.22,0-.37a4.19,4.19,0,0,1,2.34-2.59,10.79,10.79,0,0,1,4-1.1,13.09,13.09,0,0,1,4.1.3,8.13,8.13,0,0,1,3.16,1.39A2.88,2.88,0,0,1,19,15Z"/><path class="cls-5" d="M17.08,19.7A20.57,20.57,0,0,0,14,18.22l-1.46-.55-1.3-.51a8.37,8.37,0,0,1-1.87-1,1.49,1.49,0,0,1-.42-.46,1.4,1.4,0,0,1-.17-.58,1.3,1.3,0,0,1,.63-1A7.2,7.2,0,0,1,14,13a9.15,9.15,0,0,1,2.81.53A5.91,5.91,0,0,1,19,15s-.79-2.14-4.92-2.72-7.54,1.09-7.68,2.85c-.16,2,2.21,3,5.71,4.3s5.45,2.59,5,4.53c-.4,1.79-3,3.25-7.35,3-4.47-.29-6.17-3.06-6.17-3.06a4,4,0,0,0,1.32,2,7.58,7.58,0,0,0,2.93,1.57,12.36,12.36,0,0,0,2,.39,16.53,16.53,0,0,0,2,.11,12.21,12.21,0,0,0,4.21-.71,7.88,7.88,0,0,0,1.78-.93A5.19,5.19,0,0,0,19.07,25a3.63,3.63,0,0,0,.54-1.4,3.18,3.18,0,0,0-.18-1.48A5.73,5.73,0,0,0,17.08,19.7Z"/><text class="cls-6" transform="translate(29.04 24.92) scale(1.41 1)">JinteliaS</text><text class="cls-7" transform="translate(73.2 16.76) scale(3.68 1)">~</text></g></g></svg>