<svg id="Calque_1" data-name="Calque 1" xmlns="http://www.w3.org/2000/svg" viewBox="0 0 125.17 31.51"><defs><style>.cls-1,.cls-6,.cls-7{fill:#fff;}.cls-1{stroke:#fff;stroke-miterlimit:10;}.cls-2{font-size:15.09px;fill:#31a753;font-family:MyriadPro-Regular, Myriad Pro;}.cls-3{fill:#fabb09;}.cls-4{fill:#517bbd;}.cls-5{fill:#e74335;}.cls-6{font-size:15.2px;font-family:UbuntuMonospaced-Regular, Ubuntu Monospaced;}.cls-7{font-size:3.92px;font-family:UbuntuMonospaced-Bold, Ubuntu Monospaced;font-weight:700;}</style></defs><rect class="cls-1" x="2.13" y="6.61" width="27.21" height="24.41" rx="3.93"/><text class="cls-2" transform="matrix(3.15, -0.1, 0.1, 0.99, 1.32, 13.49)">~</text><path class="cls-3" d="M22.72,5H13.17v.27a13,13,0,0,1,4.54.81,2.33,2.33,0,0,1,1.38,1.2,3.41,3.41,0,0,1,.26,1.34V19a6.46,6.46,0,0,1-.72,3.65,3.39,3.39,0,0,1-1.56,1.06,7.07,7.07,0,0,1-2.41.36,5.52,5.52,0,0,1-1.72-.21,2.79,2.79,0,0,1-1.15-.73,9.14,9.14,0,0,0-.78-.75,2.2,2.2,0,0,0-.6-.35,4.76,4.76,0,0,0-1.75-.28A4.61,4.61,0,0,0,6.93,22c-.44.18-.65.41-.65.69,0,.47.56.85,1.69,1.13a16.61,16.61,0,0,0,2.44.38c1,.09,2.06.14,3.14.14A38.27,38.27,0,0,0,18.83,24a18.88,18.88,0,0,0,4.11-1,4.41,4.41,0,0,0,2.11-1.47,4.48,4.48,0,0,0,.57-2.45V8.44A4.44,4.44,0,0,0,22.72,5Z" transform="translate(0.39 6.06)"/><path class="cls-4" d="M18.64,8.91a6.05,6.05,0,0,0-2.27-1.42A9.39,9.39,0,0,0,13.57,7,7.2,7.2,0,0,0,9,8a1.28,1.28,0,0,0-.63,1,1.4,1.4,0,0,0,.17.58,1.59,1.59,0,0,0,.41.47,8.23,8.23,0,0,0,1.87,1c.41.17.85.35,1.31.52l1.46.54a19.62,19.62,0,0,1,3.11,1.49A5.65,5.65,0,0,1,19,16.1a3.07,3.07,0,0,1,.18,1.48,3.48,3.48,0,0,1-.54,1.4,4.81,4.81,0,0,1-1.22,1.25,8.2,8.2,0,0,1-1.79.94,12.41,12.41,0,0,1-4.21.71,16.45,16.45,0,0,1-2-.12,12.49,12.49,0,0,1-2-.39,7.64,7.64,0,0,1-2.93-1.56,4.1,4.1,0,0,1-1.31-2,9.9,9.9,0,0,0,5.1,2.11,10.6,10.6,0,0,0,1.38,0,10,10,0,0,0,1.39-.13,7.91,7.91,0,0,0,1.22-.26,6.46,6.46,0,0,0,.95-.4,2.31,2.31,0,0,0,1-1.06,1.85,1.85,0,0,0,.09-.63,1.19,1.19,0,0,0-.17-.56,3,3,0,0,0-1.2-1,16.23,16.23,0,0,0-2.29-1L9.3,14.27c-.5-.2-1-.4-1.53-.64a10.61,10.61,0,0,1-3-1.88,3.68,3.68,0,0,1-.93-1.42,2.56,2.56,0,0,1-.15-.75c0-.12,0-.24,0-.36a2.58,2.58,0,0,1,0-.36A4.11,4.11,0,0,1,6.09,6.27a10.61,10.61,0,0,1,4-1.1,12.8,12.8,0,0,1,4.1.29,8.21,8.21,0,0,1,3.16,1.39A2.91,2.91,0,0,1,18.64,8.91Z" transform="translate(0.39 6.06)"/><path class="cls-5" d="M16.68,13.65a19.62,19.62,0,0,0-3.11-1.49l-1.46-.54c-.46-.17-.9-.35-1.31-.52a8.23,8.23,0,0,1-1.87-1,1.59,1.59,0,0,1-.41-.47,1.4,1.4,0,0,1-.17-.58A1.28,1.28,0,0,1,9,8,7.2,7.2,0,0,1,13.57,7a9.39,9.39,0,0,1,2.8.53,6.05,6.05,0,0,1,2.27,1.42s-.79-2.15-4.93-2.73S6.18,7.27,6,9c-.16,2,2.21,3,5.7,4.31s5.45,2.58,5,4.53c-.41,1.78-3.05,3.24-7.35,3-4.48-.29-6.17-3-6.17-3a4.1,4.1,0,0,0,1.31,2,7.64,7.64,0,0,0,2.93,1.56,12.49,12.49,0,0,0,2,.39,16.45,16.45,0,0,0,2,.12,12.41,12.41,0,0,0,4.21-.71,8.2,8.2,0,0,0,1.79-.94A4.81,4.81,0,0,0,18.67,19a3.48,3.48,0,0,0,.54-1.4A3.07,3.07,0,0,0,19,16.1,5.65,5.65,0,0,0,16.68,13.65Z" transform="translate(0.39 6.06)"/><text class="cls-6" transform="translate(29.04 24.92) scale(1.41 1)">JinteliaS</text><text class="cls-7" transform="translate(73.2 16.76) scale(3.68 1)">~</text></svg>