<svg xmlns="http://www.w3.org/2000/svg" viewBox="0 0 30.07 31.55"><defs><style>.cls-1{fill:#fff;stroke:#fff;stroke-miterlimit:10;}.cls-2{font-size:15.09px;fill:#31a753;font-family:MyriadPro-Regular, Myriad Pro;}.cls-3{fill:#fabb09;}.cls-4{fill:#517bbd;}.cls-5{fill:#e74335;}</style></defs><g id="Calque_2" data-name="Calque 2"><g id="Calque_1-2" data-name="Calque 1"><rect class="cls-1" x="2.12" y="6.64" width="27.21" height="24.41" rx="3.93"/><text class="cls-2" transform="matrix(3.15, -0.1, 0.1, 0.99, 1.32, 13.49)">~</text><path class="cls-3" d="M23.1,11.09H13.55v.27a12.64,12.64,0,0,1,4.54.81,2.33,2.33,0,0,1,1.38,1.2,3.21,3.21,0,0,1,.26,1.34V25.07A6.52,6.52,0,0,1,19,28.73a3.46,3.46,0,0,1-1.56,1.06,7.24,7.24,0,0,1-2.41.36,5.72,5.72,0,0,1-1.71-.21,2.83,2.83,0,0,1-1.16-.73,6.8,6.8,0,0,0-.78-.75,2.06,2.06,0,0,0-.6-.35A4.55,4.55,0,0,0,9,27.82a4.69,4.69,0,0,0-1.73.27c-.43.19-.65.41-.65.7,0,.47.56.84,1.69,1.13a18.09,18.09,0,0,0,2.44.38c1,.09,2.06.13,3.14.13a38.17,38.17,0,0,0,5.28-.36,19.49,19.49,0,0,0,4.11-1,4.41,4.41,0,0,0,2.11-1.47A4.5,4.5,0,0,0,26,25.18V14.72a1.09,1.09,0,0,1,0-.18A4.46,4.46,0,0,0,23.1,11.09Z"/><path class="cls-4" d="M19,15a6,6,0,0,0-2.27-1.41,9,9,0,0,0-2.8-.53,7.2,7.2,0,0,0-4.59,1.07,1.25,1.25,0,0,0-.63,1,1.4,1.4,0,0,0,.17.58,1.58,1.58,0,0,0,.41.46,8.6,8.6,0,0,0,1.87,1l1.31.51,1.46.55a20.47,20.47,0,0,1,3.11,1.48,5.64,5.64,0,0,1,2.36,2.46,3.18,3.18,0,0,1,.17,1.48,3.45,3.45,0,0,1-.53,1.4,5.38,5.38,0,0,1-1.23,1.25,8,8,0,0,1-1.79.93,12.12,12.12,0,0,1-4.2.71,16.53,16.53,0,0,1-2-.11,12.36,12.36,0,0,1-2-.39A7.58,7.58,0,0,1,4.93,25.9a4,4,0,0,1-1.32-2A9.74,9.74,0,0,0,8.72,26a7.82,7.82,0,0,0,1.37,0,12.17,12.17,0,0,0,1.4-.12,9.49,9.49,0,0,0,1.21-.26,6,6,0,0,0,1-.4,2.23,2.23,0,0,0,1-1.07,2.06,2.06,0,0,0,.1-.62A1.28,1.28,0,0,0,14.6,23a3,3,0,0,0-1.2-1,16.18,16.18,0,0,0-2.29-1l-1.43-.55c-.5-.2-1-.41-1.53-.64a10.79,10.79,0,0,1-3-1.89,3.76,3.76,0,0,1-.93-1.42,2.2,2.2,0,0,1-.14-.74c0-.13,0-.24,0-.36s0-.22,0-.37a4.11,4.11,0,0,1,2.34-2.59,10.8,10.8,0,0,1,4-1.1,13.4,13.4,0,0,1,4.1.29A8.34,8.34,0,0,1,17.75,13,2.91,2.91,0,0,1,19,15Z"/><path class="cls-5" d="M17.06,19.74A20.47,20.47,0,0,0,14,18.26l-1.46-.55-1.31-.51a8.6,8.6,0,0,1-1.87-1,1.58,1.58,0,0,1-.41-.46,1.4,1.4,0,0,1-.17-.58,1.25,1.25,0,0,1,.63-1A7.2,7.2,0,0,1,14,13.06a9,9,0,0,1,2.8.53A6,6,0,0,1,19,15s-.79-2.14-4.92-2.72-7.54,1.09-7.68,2.85c-.16,2,2.21,3,5.7,4.3s5.45,2.59,5,4.53c-.41,1.79-3,3.24-7.35,3-4.47-.29-6.17-3.06-6.17-3.06a4,4,0,0,0,1.32,2,7.58,7.58,0,0,0,2.93,1.57,12.36,12.36,0,0,0,2,.39,16.53,16.53,0,0,0,2,.11,12.12,12.12,0,0,0,4.2-.71,8,8,0,0,0,1.79-.93,5.38,5.38,0,0,0,1.23-1.25,3.45,3.45,0,0,0,.53-1.4,3.18,3.18,0,0,0-.17-1.48A5.64,5.64,0,0,0,17.06,19.74Z"/></g></g></svg>