<svg xmlns="http://www.w3.org/2000/svg" viewBox="0 0 25.66 20.86"><g data-name="Layer 2"><path d="M23 5.2v.68a14.87 14.87 0 01-15 15 14.86 14.86 0 01-8-2.39 10.39 10.39 0 001.26.08 10.57 10.57 0 006.53-2.26 5.26 5.26 0 01-4.91-3.65 5.36 5.36 0 001 .09 5.22 5.22 0 001.38-.18A5.28 5.28 0 011 7.4v-.06A5.2 5.2 0 003.42 8a5.25 5.25 0 01-1.63-7 14.87 14.87 0 0010.85 5.5 5.19 5.19 0 01-.14-1.2 5.27 5.27 0 019.11-3.6A10.3 10.3 0 0025 .38a5.31 5.31 0 01-2.36 2.92 10.47 10.47 0 003-.83A10.63 10.63 0 0123 5.2z" fill="#fff" opacity=".15" data-name="Layer 3"/></g></svg>